<mxfile host="app.diagrams.net" modified="2024-02-05T00:24:37.192Z" agent="Mozilla/5.0 (Windows NT 10.0; Win64; x64) AppleWebKit/537.36 (KHTML, like Gecko) Chrome/121.0.0.0 Safari/537.36" etag="aPRWTFramu1Aaa80U-BV" version="23.1.1" type="device">
  <diagram name="Page-1" id="-xLwoKTvgAkwHdRJ8a2l">
    <mxGraphModel dx="1488" dy="790" grid="1" gridSize="10" guides="1" tooltips="1" connect="1" arrows="1" fold="1" page="1" pageScale="1" pageWidth="827" pageHeight="1169" math="0" shadow="0">
      <root>
        <mxCell id="0" />
        <mxCell id="1" parent="0" />
        <mxCell id="bhFVGf_21SlI8WKuqxVn-3" value="Server" style="rounded=0;whiteSpace=wrap;html=1;verticalAlign=top;align=left;fontSize=15;" vertex="1" parent="1">
          <mxGeometry x="139" y="240" width="651" height="490" as="geometry" />
        </mxCell>
        <mxCell id="bhFVGf_21SlI8WKuqxVn-4" value=":Scenario" style="shape=umlLifeline;perimeter=lifelinePerimeter;whiteSpace=wrap;html=1;container=1;dropTarget=0;collapsible=0;recursiveResize=0;outlineConnect=0;portConstraint=eastwest;newEdgeStyle={&quot;curved&quot;:0,&quot;rounded&quot;:0};" vertex="1" parent="1">
          <mxGeometry x="220" y="260" width="100" height="300" as="geometry" />
        </mxCell>
        <mxCell id="bhFVGf_21SlI8WKuqxVn-8" value="" style="html=1;points=[[0,0,0,0,5],[0,1,0,0,-5],[1,0,0,0,5],[1,1,0,0,-5]];perimeter=orthogonalPerimeter;outlineConnect=0;targetShapes=umlLifeline;portConstraint=eastwest;newEdgeStyle={&quot;curved&quot;:0,&quot;rounded&quot;:0};" vertex="1" parent="bhFVGf_21SlI8WKuqxVn-4">
          <mxGeometry x="45" y="80" width="10" height="170" as="geometry" />
        </mxCell>
        <mxCell id="bhFVGf_21SlI8WKuqxVn-5" value=":Riddle" style="shape=umlLifeline;perimeter=lifelinePerimeter;whiteSpace=wrap;html=1;container=1;dropTarget=0;collapsible=0;recursiveResize=0;outlineConnect=0;portConstraint=eastwest;newEdgeStyle={&quot;curved&quot;:0,&quot;rounded&quot;:0};" vertex="1" parent="1">
          <mxGeometry x="390" y="260" width="100" height="300" as="geometry" />
        </mxCell>
        <mxCell id="bhFVGf_21SlI8WKuqxVn-9" value="" style="html=1;points=[[0,0,0,0,5],[0,1,0,0,-5],[1,0,0,0,5],[1,1,0,0,-5]];perimeter=orthogonalPerimeter;outlineConnect=0;targetShapes=umlLifeline;portConstraint=eastwest;newEdgeStyle={&quot;curved&quot;:0,&quot;rounded&quot;:0};" vertex="1" parent="bhFVGf_21SlI8WKuqxVn-5">
          <mxGeometry x="45" y="100" width="10" height="160" as="geometry" />
        </mxCell>
        <mxCell id="bhFVGf_21SlI8WKuqxVn-6" value=":Element" style="shape=umlLifeline;perimeter=lifelinePerimeter;whiteSpace=wrap;html=1;container=1;dropTarget=0;collapsible=0;recursiveResize=0;outlineConnect=0;portConstraint=eastwest;newEdgeStyle={&quot;curved&quot;:0,&quot;rounded&quot;:0};" vertex="1" parent="1">
          <mxGeometry x="560" y="260" width="100" height="300" as="geometry" />
        </mxCell>
        <mxCell id="bhFVGf_21SlI8WKuqxVn-10" value="" style="html=1;points=[[0,0,0,0,5],[0,1,0,0,-5],[1,0,0,0,5],[1,1,0,0,-5]];perimeter=orthogonalPerimeter;outlineConnect=0;targetShapes=umlLifeline;portConstraint=eastwest;newEdgeStyle={&quot;curved&quot;:0,&quot;rounded&quot;:0};" vertex="1" parent="bhFVGf_21SlI8WKuqxVn-6">
          <mxGeometry x="45" y="110" width="10" height="80" as="geometry" />
        </mxCell>
        <mxCell id="bhFVGf_21SlI8WKuqxVn-7" value="Start" style="html=1;verticalAlign=bottom;startArrow=oval;startFill=1;endArrow=block;startSize=8;curved=0;rounded=0;" edge="1" parent="1" target="bhFVGf_21SlI8WKuqxVn-8">
          <mxGeometry width="60" relative="1" as="geometry">
            <mxPoint x="160" y="350" as="sourcePoint" />
            <mxPoint x="220" y="350" as="targetPoint" />
          </mxGeometry>
        </mxCell>
        <mxCell id="bhFVGf_21SlI8WKuqxVn-11" value="Start" style="html=1;verticalAlign=bottom;endArrow=block;curved=0;rounded=0;entryX=0;entryY=0;entryDx=0;entryDy=5;entryPerimeter=0;" edge="1" parent="1" source="bhFVGf_21SlI8WKuqxVn-8" target="bhFVGf_21SlI8WKuqxVn-9">
          <mxGeometry width="80" relative="1" as="geometry">
            <mxPoint x="270" y="370" as="sourcePoint" />
            <mxPoint x="350" y="370" as="targetPoint" />
          </mxGeometry>
        </mxCell>
        <mxCell id="bhFVGf_21SlI8WKuqxVn-13" value="Client" style="rounded=0;whiteSpace=wrap;html=1;verticalAlign=top;align=left;fontSize=15;" vertex="1" parent="1">
          <mxGeometry x="139" y="759" width="651" height="410" as="geometry" />
        </mxCell>
        <mxCell id="bhFVGf_21SlI8WKuqxVn-14" value=":Scenario" style="shape=umlLifeline;perimeter=lifelinePerimeter;whiteSpace=wrap;html=1;container=1;dropTarget=0;collapsible=0;recursiveResize=0;outlineConnect=0;portConstraint=eastwest;newEdgeStyle={&quot;curved&quot;:0,&quot;rounded&quot;:0};" vertex="1" parent="1">
          <mxGeometry x="220" y="790" width="100" height="300" as="geometry" />
        </mxCell>
        <mxCell id="bhFVGf_21SlI8WKuqxVn-29" value="" style="html=1;points=[[0,0,0,0,5],[0,1,0,0,-5],[1,0,0,0,5],[1,1,0,0,-5]];perimeter=orthogonalPerimeter;outlineConnect=0;targetShapes=umlLifeline;portConstraint=eastwest;newEdgeStyle={&quot;curved&quot;:0,&quot;rounded&quot;:0};" vertex="1" parent="bhFVGf_21SlI8WKuqxVn-14">
          <mxGeometry x="45" y="210" width="10" height="50" as="geometry" />
        </mxCell>
        <mxCell id="bhFVGf_21SlI8WKuqxVn-16" value=":Riddle" style="shape=umlLifeline;perimeter=lifelinePerimeter;whiteSpace=wrap;html=1;container=1;dropTarget=0;collapsible=0;recursiveResize=0;outlineConnect=0;portConstraint=eastwest;newEdgeStyle={&quot;curved&quot;:0,&quot;rounded&quot;:0};" vertex="1" parent="1">
          <mxGeometry x="390" y="790" width="100" height="300" as="geometry" />
        </mxCell>
        <mxCell id="bhFVGf_21SlI8WKuqxVn-17" value="" style="html=1;points=[[0,0,0,0,5],[0,1,0,0,-5],[1,0,0,0,5],[1,1,0,0,-5]];perimeter=orthogonalPerimeter;outlineConnect=0;targetShapes=umlLifeline;portConstraint=eastwest;newEdgeStyle={&quot;curved&quot;:0,&quot;rounded&quot;:0};" vertex="1" parent="bhFVGf_21SlI8WKuqxVn-16">
          <mxGeometry x="45" y="100" width="10" height="130" as="geometry" />
        </mxCell>
        <mxCell id="bhFVGf_21SlI8WKuqxVn-18" value=":Element" style="shape=umlLifeline;perimeter=lifelinePerimeter;whiteSpace=wrap;html=1;container=1;dropTarget=0;collapsible=0;recursiveResize=0;outlineConnect=0;portConstraint=eastwest;newEdgeStyle={&quot;curved&quot;:0,&quot;rounded&quot;:0};" vertex="1" parent="1">
          <mxGeometry x="560" y="790" width="100" height="300" as="geometry" />
        </mxCell>
        <mxCell id="bhFVGf_21SlI8WKuqxVn-19" value="" style="html=1;points=[[0,0,0,0,5],[0,1,0,0,-5],[1,0,0,0,5],[1,1,0,0,-5]];perimeter=orthogonalPerimeter;outlineConnect=0;targetShapes=umlLifeline;portConstraint=eastwest;newEdgeStyle={&quot;curved&quot;:0,&quot;rounded&quot;:0};" vertex="1" parent="bhFVGf_21SlI8WKuqxVn-18">
          <mxGeometry x="45" y="110" width="10" height="110" as="geometry" />
        </mxCell>
        <mxCell id="bhFVGf_21SlI8WKuqxVn-21" value="Start" style="html=1;verticalAlign=bottom;endArrow=block;curved=0;rounded=0;entryX=0;entryY=0;entryDx=0;entryDy=5;entryPerimeter=0;" edge="1" parent="1" source="bhFVGf_21SlI8WKuqxVn-9" target="bhFVGf_21SlI8WKuqxVn-17">
          <mxGeometry x="0.8782" width="80" relative="1" as="geometry">
            <mxPoint x="360" y="370" as="sourcePoint" />
            <mxPoint x="350" y="950" as="targetPoint" />
            <Array as="points">
              <mxPoint x="500" y="370" />
              <mxPoint x="500" y="640" />
              <mxPoint x="360" y="640" />
              <mxPoint x="360" y="895" />
            </Array>
            <mxPoint as="offset" />
          </mxGeometry>
        </mxCell>
        <mxCell id="bhFVGf_21SlI8WKuqxVn-22" value="Request Complete" style="html=1;verticalAlign=bottom;startArrow=circle;startFill=1;endArrow=open;startSize=6;endSize=8;curved=0;rounded=0;" edge="1" parent="1" target="bhFVGf_21SlI8WKuqxVn-19">
          <mxGeometry x="0.7528" width="80" relative="1" as="geometry">
            <mxPoint x="160" y="920" as="sourcePoint" />
            <mxPoint x="240" y="920" as="targetPoint" />
            <mxPoint as="offset" />
          </mxGeometry>
        </mxCell>
        <mxCell id="bhFVGf_21SlI8WKuqxVn-23" value="Request Complete" style="html=1;verticalAlign=bottom;endArrow=block;curved=0;rounded=0;entryX=0;entryY=0;entryDx=0;entryDy=5;entryPerimeter=0;" edge="1" parent="1" source="bhFVGf_21SlI8WKuqxVn-19" target="bhFVGf_21SlI8WKuqxVn-10">
          <mxGeometry x="0.071" width="80" relative="1" as="geometry">
            <mxPoint x="450" y="810" as="sourcePoint" />
            <mxPoint x="530" y="810" as="targetPoint" />
            <Array as="points">
              <mxPoint x="690" y="940" />
              <mxPoint x="690" y="650" />
              <mxPoint x="580" y="650" />
              <mxPoint x="580" y="375" />
            </Array>
            <mxPoint as="offset" />
          </mxGeometry>
        </mxCell>
        <mxCell id="bhFVGf_21SlI8WKuqxVn-26" value="Complete" style="html=1;align=left;spacingLeft=2;endArrow=block;rounded=0;edgeStyle=orthogonalEdgeStyle;curved=0;rounded=0;" edge="1" target="bhFVGf_21SlI8WKuqxVn-10" parent="1">
          <mxGeometry x="-1" y="10" relative="1" as="geometry">
            <mxPoint x="615" y="389.99999999999994" as="sourcePoint" />
            <Array as="points">
              <mxPoint x="650" y="390" />
              <mxPoint x="650" y="420" />
            </Array>
            <mxPoint x="625" y="419.99999999999994" as="targetPoint" />
            <mxPoint as="offset" />
          </mxGeometry>
        </mxCell>
        <mxCell id="bhFVGf_21SlI8WKuqxVn-27" value="" style="html=1;verticalAlign=bottom;endArrow=block;curved=0;rounded=0;" edge="1" parent="1" target="bhFVGf_21SlI8WKuqxVn-19">
          <mxGeometry x="0.9136" width="80" relative="1" as="geometry">
            <mxPoint x="615" y="390" as="sourcePoint" />
            <mxPoint x="605" y="910" as="targetPoint" />
            <Array as="points">
              <mxPoint x="650" y="390" />
              <mxPoint x="650" y="470" />
              <mxPoint x="530" y="470" />
              <mxPoint x="530" y="970" />
            </Array>
            <mxPoint as="offset" />
          </mxGeometry>
        </mxCell>
        <mxCell id="bhFVGf_21SlI8WKuqxVn-28" value="Element Complete event" style="html=1;verticalAlign=bottom;endArrow=block;curved=0;rounded=0;" edge="1" parent="1" source="bhFVGf_21SlI8WKuqxVn-19">
          <mxGeometry width="80" relative="1" as="geometry">
            <mxPoint x="610" y="1000" as="sourcePoint" />
            <mxPoint x="445" y="1000" as="targetPoint" />
          </mxGeometry>
        </mxCell>
        <mxCell id="bhFVGf_21SlI8WKuqxVn-30" value="Riddle Complete Event" style="html=1;verticalAlign=bottom;endArrow=block;curved=0;rounded=0;exitX=0;exitY=1;exitDx=0;exitDy=-5;exitPerimeter=0;" edge="1" parent="1" source="bhFVGf_21SlI8WKuqxVn-17" target="bhFVGf_21SlI8WKuqxVn-29">
          <mxGeometry width="80" relative="1" as="geometry">
            <mxPoint x="310" y="1020" as="sourcePoint" />
            <mxPoint x="390" y="1020" as="targetPoint" />
          </mxGeometry>
        </mxCell>
        <mxCell id="bhFVGf_21SlI8WKuqxVn-31" value="Element Complete event" style="html=1;verticalAlign=bottom;endArrow=block;curved=0;rounded=0;" edge="1" parent="1">
          <mxGeometry width="80" relative="1" as="geometry">
            <mxPoint x="605" y="440" as="sourcePoint" />
            <mxPoint x="445" y="440" as="targetPoint" />
          </mxGeometry>
        </mxCell>
        <mxCell id="bhFVGf_21SlI8WKuqxVn-32" value="Riddle Complete event" style="html=1;verticalAlign=bottom;endArrow=block;curved=0;rounded=0;" edge="1" parent="1">
          <mxGeometry width="80" relative="1" as="geometry">
            <mxPoint x="435" y="470" as="sourcePoint" />
            <mxPoint x="275" y="470" as="targetPoint" />
          </mxGeometry>
        </mxCell>
      </root>
    </mxGraphModel>
  </diagram>
</mxfile>
